<?xml version="1.0" encoding="utf-8"?>
<!-- Generator: Adobe Illustrator 27.4.0, SVG Export Plug-In . SVG Version: 6.00 Build 0)  -->
<svg version="1.1" xmlns="http://www.w3.org/2000/svg" xmlns:xlink="http://www.w3.org/1999/xlink" x="0px" y="0px"
	 viewBox="0 0 252 230" style="enable-background:new 0 0 252 230;" xml:space="preserve">
<style type="text/css">
	.st0{display:none;}
	.st1{display:inline;opacity:0.5;fill:#EEB831;}
	.st2{display:inline;opacity:0.5;fill:#009DE2;}
	.st3{display:inline;fill:#009DE2;}
	.st4{display:inline;fill:none;}
	.st5{display:inline;opacity:0.5;}
	.st6{fill:#EEB831;}
	.st7{display:inline;fill:none;stroke:#EEB831;stroke-width:15;stroke-linecap:round;stroke-miterlimit:10;}
	.st8{display:inline;fill:#EEB831;}
	.st9{display:inline;opacity:0.3;fill:#EEB831;stroke:#000000;stroke-miterlimit:10;}
	.st10{display:inline;fill:none;stroke:#000000;stroke-miterlimit:10;}
	.st11{display:inline;}
	.st12{fill:#F6D233;}
	.st13{fill:#FFFFFF;}
	.st14{fill:none;stroke:#000000;stroke-width:3;stroke-miterlimit:10;}
	.st15{fill:#151618;}
	.st16{fill:#333333;}
	.st17{fill:#E5C25E;}
	.st18{fill:#F1C131;}
	.st19{fill:#D3D2C0;}
	.st20{fill:#FFFDE7;}
	.st21{fill:#D3C68E;}
	.st22{fill:#F5E8B0;}
	.st23{fill:#8C7D4C;}
	.st24{fill:#847F65;}
	.st25{clip-path:url(#SVGID_00000168094447072551282420000008984586545968821394_);}
	.st26{clip-path:url(#SVGID_00000086653451572671394320000015395180716560777141_);}
	.st27{clip-path:url(#SVGID_00000106106363048181339620000003248853869574152872_);}
	.st28{clip-path:url(#SVGID_00000024713367121654866730000009112761832611631247_);}
	.st29{clip-path:url(#SVGID_00000147208316857237873390000005190616472520227998_);}
	.st30{clip-path:url(#SVGID_00000090986893298801088870000006864104007871078834_);}
	.st31{fill:#444444;}
	.st32{fill:none;stroke:#DABE8A;stroke-miterlimit:10;}
	.st33{fill:#DABE8A;stroke:#DABE8A;stroke-miterlimit:10;}
	.st34{fill:#DABE8A;}
	.st35{fill:none;stroke:#DABE8A;stroke-linejoin:bevel;stroke-miterlimit:10;}
	.st36{fill:none;stroke:#E5C25E;stroke-width:2;stroke-miterlimit:10;}
	.st37{fill:#CCB271;}
	.st38{fill:#222222;}
	.st39{filter:url(#Adobe_OpacityMaskFilter);}
	.st40{opacity:0.25;mask:url(#SVGID_00000051361287457300596030000006786537782949941661_);}
	.st41{filter:url(#Adobe_OpacityMaskFilter_00000044160038053883816000000000590340948125653133_);}
	.st42{opacity:0.25;mask:url(#SVGID_00000021830978704732765490000007360710705967725241_);}
	.st43{filter:url(#Adobe_OpacityMaskFilter_00000114036701729430704840000010174553579119789708_);}
	.st44{opacity:0.25;mask:url(#SVGID_00000149358116063908711090000000606757851640046522_);}
	.st45{filter:url(#Adobe_OpacityMaskFilter_00000178175951905908144170000014126354074210817156_);}
	.st46{opacity:0.25;mask:url(#SVGID_00000128485672916854484440000003606556336920850072_);}
	.st47{filter:url(#Adobe_OpacityMaskFilter_00000022534101981066745520000010134250827322529446_);}
	.st48{opacity:0.25;mask:url(#SVGID_00000086658028908406681050000004212955678894699401_);}
	.st49{filter:url(#Adobe_OpacityMaskFilter_00000039099095602639131660000010055262742295062412_);}
	.st50{opacity:0.25;mask:url(#SVGID_00000115513695540429569120000001038675044011506352_);}
	.st51{filter:url(#Adobe_OpacityMaskFilter_00000138540829004798915270000008839135001286989731_);}
	.st52{opacity:0.25;mask:url(#SVGID_00000170254062840765325680000007714840659734181804_);}
	.st53{filter:url(#Adobe_OpacityMaskFilter_00000163769157482720297280000013409940684122765717_);}
	.st54{opacity:0.25;mask:url(#SVGID_00000168810254632532138150000004034964216910912388_);}
	.st55{opacity:0.75;}
	.st56{filter:url(#Adobe_OpacityMaskFilter_00000072271065319466817140000000769504832855297451_);}
	.st57{opacity:0.25;mask:url(#SVGID_00000090265301317799219150000012320181826223882939_);}
	.st58{filter:url(#Adobe_OpacityMaskFilter_00000110441238156024089840000013535895851336534659_);}
	.st59{opacity:0.25;mask:url(#SVGID_00000108277297980912152420000006673241683741982851_);}
	.st60{filter:url(#Adobe_OpacityMaskFilter_00000160170369262659997190000001762229132168281233_);}
	.st61{opacity:0.25;mask:url(#SVGID_00000127004195133529679550000014266654755072575387_);}
	.st62{filter:url(#Adobe_OpacityMaskFilter_00000061439594713167513220000001035554371301561790_);}
	.st63{opacity:0.25;mask:url(#SVGID_00000098211582669348267800000014725810355698585251_);}
	.st64{filter:url(#Adobe_OpacityMaskFilter_00000158745290892550747610000010747373541771212198_);}
	.st65{opacity:0.25;mask:url(#SVGID_00000034084636981788015820000014525963379464963000_);}
	.st66{filter:url(#Adobe_OpacityMaskFilter_00000071551916975535150390000017606453095880782980_);}
	.st67{opacity:0.25;mask:url(#SVGID_00000089567524984369760460000011807747987039893148_);}
	.st68{filter:url(#Adobe_OpacityMaskFilter_00000021838797837771724630000007674820467134653077_);}
	.st69{opacity:0.25;mask:url(#SVGID_00000049222779217665782750000003486562375325855422_);}
	.st70{filter:url(#Adobe_OpacityMaskFilter_00000116916596783238679240000018082236656515600039_);}
	.st71{opacity:0.25;mask:url(#SVGID_00000007402692366205010560000011930143049112207004_);}
	.st72{display:none;fill:#FFFFFF;}
	.st73{fill:none;stroke:#000000;stroke-width:3;stroke-linecap:round;stroke-miterlimit:10;}
	.st74{clip-path:url(#SVGID_00000088129127183591502860000017610076619298618780_);fill:#FFFFFF;}
	.st75{clip-path:url(#SVGID_00000088129127183591502860000017610076619298618780_);}
	.st76{fill:none;stroke:#000000;stroke-width:2;stroke-linecap:round;stroke-miterlimit:10;}
	.st77{fill:none;stroke:#000000;stroke-width:6;stroke-linecap:round;stroke-linejoin:round;stroke-miterlimit:10;}
	.st78{fill:none;stroke:#FFFFFF;stroke-width:3;stroke-linecap:round;stroke-linejoin:round;stroke-miterlimit:10;}
	.st79{display:none;opacity:0.5;fill:#FFFFFF;}
	.st80{fill:none;stroke:#000000;stroke-width:3;stroke-linecap:square;stroke-miterlimit:10;}
	.st81{fill:none;stroke:#FFFFFF;stroke-width:3;stroke-miterlimit:10;}
	.st82{opacity:0.9;}
	.st83{fill:none;stroke:#E5C25E;stroke-miterlimit:10;}
	.st84{fill:none;stroke:#66624F;stroke-miterlimit:10;}
	.st85{filter:url(#Adobe_OpacityMaskFilter_00000167356254357682169350000001507593919902843532_);}
	.st86{opacity:0.25;mask:url(#SVGID_00000158019737878044637220000007158402579078218383_);}
	.st87{fill:none;stroke:#000000;stroke-miterlimit:10;}
	.st88{filter:url(#Adobe_OpacityMaskFilter_00000121973746271464192170000009402394765834315650_);}
	.st89{opacity:0.25;mask:url(#SVGID_00000156569175413337430910000007182291793204164258_);}
	.st90{filter:url(#Adobe_OpacityMaskFilter_00000049197679582844980580000006533014497887095222_);}
	.st91{opacity:0.25;mask:url(#SVGID_00000162344285524451367850000002664911896498844094_);}
	.st92{filter:url(#Adobe_OpacityMaskFilter_00000096019684846250699000000001412022350601541819_);}
	.st93{opacity:0.25;mask:url(#SVGID_00000000934833235306255280000012021488224973075638_);}
	.st94{filter:url(#Adobe_OpacityMaskFilter_00000161609468340212485800000005251608211006700687_);}
	.st95{opacity:0.25;mask:url(#SVGID_00000096764727457746112970000011610846281197298312_);}
	.st96{filter:url(#Adobe_OpacityMaskFilter_00000062188437740227382810000002302137827677459841_);}
	.st97{opacity:0.25;mask:url(#SVGID_00000106116748819739757450000002721959079922521763_);}
	.st98{filter:url(#Adobe_OpacityMaskFilter_00000060710284563244094690000010800664890948660894_);}
	.st99{opacity:0.25;mask:url(#SVGID_00000109748650163167244860000014055627131443257509_);}
	.st100{filter:url(#Adobe_OpacityMaskFilter_00000183939893884878293520000015308580831847278781_);}
	.st101{opacity:0.25;mask:url(#SVGID_00000183229403999388391620000015585079955812376981_);}
	.st102{filter:url(#Adobe_OpacityMaskFilter_00000020375607061563855670000003887890187335306139_);}
	.st103{opacity:0.25;mask:url(#SVGID_00000098935556492100502310000009457734536374945723_);}
	.st104{filter:url(#Adobe_OpacityMaskFilter_00000072238314068194906110000008762330525955000472_);}
	.st105{opacity:0.25;mask:url(#SVGID_00000006685479596600977830000005736757906921684380_);}
	.st106{filter:url(#Adobe_OpacityMaskFilter_00000091696681028333991640000003396231010582466239_);}
	.st107{opacity:0.25;mask:url(#SVGID_00000183937962675824246860000001190791466240288914_);}
	.st108{filter:url(#Adobe_OpacityMaskFilter_00000005229777699038490520000013216358173751579813_);}
	.st109{opacity:0.25;mask:url(#SVGID_00000148637816783299645380000007972125788108450445_);}
	.st110{filter:url(#Adobe_OpacityMaskFilter_00000173120770896344644640000005715966805640959375_);}
	.st111{opacity:0.25;mask:url(#SVGID_00000004509442034437893690000002664863974233183417_);}
	.st112{filter:url(#Adobe_OpacityMaskFilter_00000003787576320407506230000010472884587234763431_);}
	.st113{opacity:0.25;mask:url(#SVGID_00000163765885936936168090000003730152777901017003_);}
	.st114{fill:#333333;stroke:#E5C25E;stroke-miterlimit:10;}
	.st115{fill:none;stroke:#847F65;stroke-miterlimit:10;}
	.st116{clip-path:url(#SVGID_00000020359119723971778700000000848900821400134580_);}
	.st117{clip-path:url(#SVGID_00000177486751629743863950000013356576435909467281_);}
	.st118{clip-path:url(#SVGID_00000019671755402676591630000007258137010765055663_);}
	.st119{clip-path:url(#SVGID_00000142157851421294770820000011153646178120151216_);}
	.st120{clip-path:url(#SVGID_00000021089102099856730690000009743854476581626025_);}
	.st121{clip-path:url(#SVGID_00000023241102935957051170000005509864975472499072_);}
	.st122{clip-path:url(#SVGID_00000093166373304570402390000015243764832034111111_);}
	.st123{clip-path:url(#SVGID_00000116225136836652182770000016667494479674047152_);}
	.st124{clip-path:url(#SVGID_00000095328409684261044150000001943102270140217768_);}
	.st125{clip-path:url(#SVGID_00000078744584914435646200000000258243579753250732_);}
	.st126{clip-path:url(#SVGID_00000066476328371459956450000002401044603897576125_);}
	.st127{clip-path:url(#SVGID_00000033330488045301297360000003213985201858169791_);}
	.st128{clip-path:url(#SVGID_00000000208205188427159010000005350182314162000272_);}
	.st129{fill:#333333;stroke:#E5C25E;stroke-width:2;stroke-miterlimit:10;}
	.st130{clip-path:url(#SVGID_00000106121605915418998050000017590288594892534965_);}
	.st131{display:inline;fill:#151618;}
	.st132{fill:none;stroke:#666666;stroke-width:60;stroke-linecap:square;stroke-miterlimit:10;}
	.st133{fill:none;stroke:#FFFFFF;stroke-width:25;stroke-linecap:square;stroke-miterlimit:10;}
	.st134{fill:#666666;}
	.st135{fill:#90B7FF;}
	.st136{fill:none;stroke:#333333;stroke-width:40;stroke-linecap:round;stroke-linejoin:round;}
	.st137{fill:none;stroke:#333333;stroke-width:50;stroke-linecap:round;stroke-linejoin:round;stroke-miterlimit:10;}
</style>
<g id="圖層_1">
</g>
<g id="圖層_2">
</g>
<g id="圖層_3">
	<g>
		<g>
			<path class="st135" d="M101,215.81c-6.9,0-12.5-5.6-12.5-12.5V91.91c0-3.71,1.64-7.22,4.49-9.59c2.27-1.89,5.11-2.91,8.01-2.91
				c0.74,0,1.48,0.07,2.22,0.2l30,5.43c5.95,1.08,10.28,6.26,10.28,12.3v105.97c0,6.9-5.6,12.5-12.5,12.5H101z"/>
			<path class="st16" d="M101,91.91l30,5.43v105.97h-30V91.91 M101,66.91c-5.81,0-11.5,2.03-16.03,5.81
				C79.29,77.47,76,84.5,76,91.91v111.4c0,13.81,11.19,25,25,25h30c13.81,0,25-11.19,25-25V97.34c0-12.09-8.65-22.45-20.55-24.6
				l-30-5.43C103.97,67.04,102.48,66.91,101,66.91L101,66.91z"/>
		</g>
		<g>
			<path class="st135" d="M156,215.81c-6.9,0-12.5-5.6-12.5-12.5V87.69c0-4.32,2.23-8.34,5.9-10.62l19.87-12.35
				c2.05-1.28,4.33-1.89,6.59-1.89c4.1,0,8.11,2.01,10.5,5.7l10.13,15.62c1.31,2.03,2.01,4.39,2.01,6.8v112.35
				c0,6.9-5.6,12.5-12.5,12.5H156z"/>
			<path class="st16" d="M175.86,75.34L186,90.96v112.35h-30V87.69L175.86,75.34 M175.84,50.34c-4.51,0-9.07,1.22-13.17,3.77
				L142.8,66.45c-7.34,4.56-11.8,12.59-11.8,21.23v115.63c0,13.81,11.19,25,25,25h30c13.81,0,25-11.19,25-25V90.96
				c0-4.83-1.4-9.56-4.03-13.61l-10.14-15.62C192.06,54.36,184.04,50.34,175.84,50.34L175.84,50.34z"/>
		</g>
		<g>
			<path class="st135" d="M46,215.81c-6.9,0-12.5-5.6-12.5-12.5v-88.06c0-4.31,2.22-8.31,5.87-10.6l29.96-18.9
				c2.03-1.28,4.35-1.93,6.67-1.93c2.08,0,4.15,0.52,6.04,1.55c3.99,2.2,6.46,6.39,6.46,10.95v106.98c0,6.9-5.6,12.5-12.5,12.5H46z"
				/>
			<path class="st16" d="M76,96.33v106.98H46v-88.06l0.36-0.22L76,96.33 M76,71.33c-4.64,0-9.27,1.29-13.34,3.85l-29.64,18.7
				l-0.32,0.2C25.42,98.65,21,106.65,21,115.25v88.06c0,13.81,11.19,25,25,25h30c13.81,0,25-11.19,25-25V96.33
				c0-9.11-4.95-17.49-12.93-21.89C84.31,72.36,80.15,71.33,76,71.33L76,71.33z"/>
		</g>
		<g>
			<polyline class="st137" points="171.75,47.85 134.21,69.52 113.33,40.07 26,89.76 39.69,113.83 105.23,76.53 126.2,106.12 
				185.6,71.83 196.48,90.68 226,30.98 159.54,26.69 171.75,47.85 			"/>
			<polyline class="st13" points="171.75,47.85 134.21,69.52 113.33,40.07 26,89.76 39.69,113.83 105.23,76.53 126.2,106.12 
				185.6,71.83 196.48,90.68 226,30.98 159.54,26.69 171.75,47.85 			"/>
		</g>
	</g>
</g>
</svg>
