<?xml version="1.0" encoding="UTF-8"?>
<svg width="42px" height="60px" viewBox="0 0 42 60" version="1.1" xmlns="http://www.w3.org/2000/svg" xmlns:xlink="http://www.w3.org/1999/xlink">
    <!-- Generator: Sketch 45.1 (43504) - http://www.bohemiancoding.com/sketch -->
    <title>chicken</title>
    <desc>Created with Sketch.</desc>
    <defs></defs>
    <g id="Login/Logout/Profile" stroke="none" stroke-width="1" fill="none" fill-rule="evenodd" opacity="0.2">
        <g id="Trans" transform="translate(-4.000000, -318.000000)" fill-rule="nonzero" fill="#44A08D">
            <g id="Group-6" transform="translate(0.000000, 268.000000)">
                <g id="Group-40" transform="translate(0.000000, 44.000000)">
                    <g id="Group-5">
                        <g id="chicken" transform="translate(4.000000, 6.000000)">
                            <path d="M37.7716152,33.8886626 C37.7716152,33.8886626 39.8108606,34.7469609 40.5687035,35.3355082 C40.5687035,35.3355082 35.8498882,22.554667 23.4185521,17.3521163 C23.4185521,17.3521163 29.0172486,18.9951443 32.9691811,21.2594169 C33.8769353,17.1433008 34.0758126,10.3802079 34.0758126,10.3653455 C31.5024612,10.4953907 29.3878835,11.2139833 29.3878835,11.2139833 C30.6549728,8.67773054 31.2862575,6.29381643 31.3841895,4.21532274 C31.4000093,3.85639801 30.9412356,3.68325213 30.7099654,3.96117728 C29.5400548,5.37458272 27.1286679,8.14714616 25.7425535,8.74981273 C25.7425535,8.74981273 25.4351978,3.7107474 24.6110624,0.519066883 C24.5093638,0.131903775 23.9428649,0.15196789 23.8682859,0.545075921 C23.4532049,2.73652315 22.5838702,6.66091542 21.5540777,7.4961771 C21.5540777,7.4961771 20.9687457,2.77442203 20.1965896,0.269380118 C20.0805779,-0.105893144 19.535172,-0.0835996827 19.4620997,0.302077195 C19.0658518,2.39914877 18.2040503,6.52343908 17.3271823,7.88185398 C17.3271823,7.88185398 15.3745691,4.3342212 14.4442152,1.68798736 C14.3206702,1.33872314 13.8151905,1.35581479 13.7187651,1.7139964 C13.3240239,3.17719056 12.755265,5.82862621 12.7740981,8.90883942 C12.7740981,8.90883942 10.786832,6.99903292 9.47680333,4.7890078 C9.29600581,4.4843305 8.83421882,4.56458696 8.77244633,4.91236496 C8.54569611,6.18086289 8.27223986,8.40797966 8.6534213,10.3995289 C8.6534213,10.3995289 7.41571161,10.1654475 5.97912465,9.04037084 C5.7614143,8.86945431 5.43522544,8.98686653 5.38324615,9.25661741 C5.07137043,10.8587742 4.40467958,15.334558 5.75086778,19.1645747 C5.75086778,19.1645747 1.11190475,19.9247817 0,23.8922746 C0,23.8922746 2.259969,22.2254669 5.21751509,22.2291824 C5.21751509,22.2291824 3.08561101,22.8006382 1.43282035,24.0037419 C6.55165013,23.8476877 11.4587961,27.9883266 12.3951766,29.8959037 C12.3951766,29.8959037 10.0915149,28.1191149 7.38331872,27.0297077 C5.99946437,28.7671115 3.29277483,32.7212284 3.28674825,37.098921 C3.27770837,42.9784498 6.25408754,45.6551514 9.34271184,45.6596101 C11.5243352,45.6625825 14.2121917,43.9630777 15.768557,41.1600465 C14.1880854,46.34179 11.5582348,55.1558814 10.7137597,59.1486403 C10.7137597,59.1486403 20.3465009,42.200408 41.4433115,42.2308758 C41.4440648,42.2331051 39.2134754,36.029578 37.7716152,33.8886626 Z M18.5328692,22.8034487 C16.3271293,22.8006627 15.0322102,21.7364177 15.0322102,21.5079671 C15.0322102,21.1736493 16.3963234,19.677577 18.6020633,19.680363 C20.8078033,19.683149 21.7454545,20.8212226 21.7454545,21.1193227 C21.7440424,21.3254853 20.7386091,22.8062347 18.5328692,22.8034487 Z" id="Shape" transform="translate(20.721656, 29.574320) scale(-1, 1) translate(-20.721656, -29.574320) "></path>
                        </g>
                    </g>
                </g>
            </g>
        </g>
    </g>
</svg>