<?xml version="1.0" encoding="UTF-8"?>
<svg width="26px" height="28px" viewBox="0 0 26 28" version="1.1" xmlns="http://www.w3.org/2000/svg" xmlns:xlink="http://www.w3.org/1999/xlink">
    <!-- Generator: Sketch 45.1 (43504) - http://www.bohemiancoding.com/sketch -->
    <title>ace-of-hearts</title>
    <desc>Created with Sketch.</desc>
    <defs></defs>
    <g id="Login/Logout/Profile" stroke="none" stroke-width="1" fill="none" fill-rule="evenodd">
        <g id="Trans-summary-bk" transform="translate(-8.000000, -224.000000)" fill="#7352AD">
            <g id="Group-7" transform="translate(8.000000, 224.000000)">
                <g id="ace-of-hearts">
                    <path d="M5.6707514,4.81937973 L0.784267804,5.80917581 C0.228042807,5.92184361 -0.089965404,6.44438306 0.0492669965,6.98130546 L5.24112913,27.002702 C5.37945059,27.5361115 5.93317691,27.8907903 6.47587684,27.787053 L21.8627524,24.8458452 C22.0514124,24.8097828 22.2153711,24.7222498 22.3427688,24.6006643 L6.6739737,24.6006643 C6.11990932,24.6006643 5.6707514,24.1614885 5.6707514,23.5970039 L5.6707514,4.81937973 Z" id="Combined-Shape"></path>
                    <path d="M24.2920912,0 L8.40228764,0 C7.77582768,0 7.26616149,0.50731534 7.26616149,1.13088573 L7.26616149,21.8394957 C7.26616149,22.4630661 7.77582768,22.9703814 8.40228764,22.9703814 L24.2920912,22.9703814 C24.9185512,22.9703814 25.4282173,22.4630661 25.4282173,21.8394957 L25.4282173,1.13088573 C25.4282173,0.50731534 24.9185512,0 24.2920912,0 Z M18.0061324,17.1259074 C18.1090655,17.3207025 14.6383137,17.3265265 14.7295446,17.131788 C15.500463,15.4959052 15.9315661,13.6257029 15.9315661,13.6257029 C15.4651863,14.0548175 14.5750314,14.6201473 13.8334819,14.6201473 C12.2753417,14.6260279 11.1777302,13.5964696 11.1777302,11.9722915 C11.1718224,9.26003166 16.3214278,5.69542328 16.3214278,5.69542328 L16.3508534,5.69542328 C16.3508534,5.69542328 21.5121609,9.24244639 21.5165918,11.9605868 C21.5165918,13.5788843 20.4248882,14.6083861 18.8682818,14.6143233 C18.0575421,14.6143233 17.2410083,14.0709892 16.7819565,13.6257595 C16.7820133,13.6257595 17.2130596,15.6160053 18.0061324,17.1259074 Z" id="Shape" fill-rule="nonzero"></path>
                </g>
            </g>
        </g>
    </g>
</svg>