<?xml version="1.0" encoding="UTF-8"?>
<svg width="32px" height="32px" viewBox="0 0 32 32" version="1.1" xmlns="http://www.w3.org/2000/svg" xmlns:xlink="http://www.w3.org/1999/xlink">
    <!-- Generator: Sketch 45.1 (43504) - http://www.bohemiancoding.com/sketch -->
    <title>Rectangle 5</title>
    <desc>Created with Sketch.</desc>
    <defs></defs>
    <g id="Login/Logout/Profile" stroke="none" stroke-width="1" fill="none" fill-rule="evenodd">
        <g id="login" transform="translate(-40.000000, -195.000000)">
            <g id="Group-5" transform="translate(40.000000, 191.000000)">
                <g id="ios-person-outline" transform="translate(0.000000, 4.000000)">
                    <path d="M24.0475,24.0925 C23.08,23.7475 21.6925,23.6275 20.8075,23.4325 C20.2975,23.32 19.555,23.035 19.3075,22.7425 C19.06,22.4425 19.21,19.675 19.21,19.675 C19.21,19.675 19.6675,18.955 19.915,18.325 C20.1625,17.695 20.4325,15.97 20.4325,15.97 C20.4325,15.97 20.9425,15.97 21.1225,15.0775 C21.3175,14.1025 21.6175,13.6975 21.58,12.97 C21.5425,12.295 21.19,12.2575 21.1525,12.2575 L21.1525,12.2575 C21.1525,12.2575 21.52,11.2375 21.5725,9.0775 C21.6325,6.52 19.675,4 16,4 C12.325,4 10.375,6.5125 10.4275,9.07 C10.4725,11.2225 10.8475,12.25 10.8475,12.25 L10.8475,12.25 C10.81,12.25 10.4575,12.2875 10.42,12.9625 C10.3825,13.69 10.69,14.08 10.8775,15.055 C11.0575,15.9475 11.5675,15.955 11.5675,15.955 C11.5675,15.955 11.8375,17.6875 12.085,18.3175 C12.3325,18.955 12.79,19.6675 12.79,19.6675 C12.79,19.6675 12.94,22.435 12.6925,22.735 C12.445,23.035 11.7025,23.3125 11.1925,23.425 C10.3,23.62 8.92,23.7475 7.9525,24.0925 C6.985,24.4375 4,25.6 4,28 L16,28 L28,28 C28,25.6 25.015,24.4375 24.0475,24.0925 Z M16,26.8 L5.7025,26.8 C5.8525,26.575 6.055,26.4175 6.3175,26.23 C6.8425,25.8475 7.525,25.495 8.35,25.21 C8.86,25.03 9.6025,24.91 10.255,24.8125 C10.6825,24.745 11.0875,24.685 11.4475,24.6025 C11.7025,24.5425 13.0075,24.2275 13.6075,23.5075 C13.945,23.1025 14.0425,22.555 14.0275,21.085 C14.02,20.335 13.9825,19.6375 13.9825,19.6075 L13.9675,19.2925 L13.795,19.03 C13.6825,18.8575 13.36,18.3175 13.195,17.8825 C13.06,17.53 12.85,16.4425 12.745,15.775 C12.745,15.775 12.775,15.85 12.7075,15.4975 C12.64,15.145 12.0775,15.175 12.0025,14.8975 C11.935,14.6275 11.8675,14.38 11.68,13.5325 C11.4925,12.685 11.89,12.6925 11.9725,12.3175 C12.0175,12.085 11.9725,11.89 11.9725,11.8825 L11.9725,11.8825 C11.95,11.8075 11.665,10.8775 11.62,9.055 C11.5975,8.065 11.965,7.135 12.655,6.4375 C13.45,5.6275 14.605,5.2 15.9925,5.2 C17.4175,5.2 18.5425,5.6275 19.3375,6.4375 C20.0275,7.135 20.395,8.065 20.3725,9.055 C20.335,10.87 20.05,11.8 20.02,11.8825 L20.02,11.8825 C20.02,11.89 19.975,12.01 19.99,12.2725 C20.005,12.6775 20.5,12.685 20.3125,13.5325 C20.125,14.38 20.0575,14.6275 19.99,14.8975 C19.9225,15.1675 19.3525,15.145 19.285,15.4975 C19.2175,15.85 19.2475,15.775 19.2475,15.775 C19.1425,16.4425 18.9325,17.53 18.7975,17.8825 C18.625,18.3175 18.3025,18.8575 18.1975,19.03 L18.025,19.2925 L18.01,19.6075 C18.01,19.6375 17.9725,20.335 17.965,21.085 C17.95,22.555 18.0475,23.1025 18.385,23.5075 C18.985,24.22 20.29,24.5425 20.545,24.6025 C20.905,24.685 21.31,24.745 21.7375,24.8125 C22.39,24.91 23.1325,25.03 23.6425,25.21 C24.4675,25.5025 25.1575,25.855 25.675,26.2375 C25.9375,26.425 26.14,26.5825 26.29,26.8075 L16,26.8 L16,26.8 Z" id="Shape" fill="#FFFFFF" fill-rule="nonzero"></path>
                    <rect id="Rectangle-5" x="0" y="0" width="32" height="32"></rect>
                </g>
            </g>
        </g>
    </g>
</svg>