<?xml version="1.0" encoding="UTF-8"?>
<svg width="24px" height="24px" viewBox="0 0 24 24" version="1.1" xmlns="http://www.w3.org/2000/svg" xmlns:xlink="http://www.w3.org/1999/xlink">
    <!-- Generator: Sketch 45.1 (43504) - http://www.bohemiancoding.com/sketch -->
    <title>Rectangle 24</title>
    <desc>Created with Sketch.</desc>
    <defs></defs>
    <g id="Login/Logout/Profile" stroke="none" stroke-width="1" fill="none" fill-rule="evenodd">
        <g id="Profile" transform="translate(-24.000000, -360.000000)" fill-rule="nonzero" fill="#000000">
            <g id="change-pwd" transform="translate(0.000000, 342.000000)">
                <g id="Group-25" transform="translate(23.000000, 18.000000)">
                    <g id="ios-locked" transform="translate(0.250000, 0.000000)">
                        <path d="M17.3142857,10.5428571 L17.3142857,7.45714286 C17.3142857,4.99585714 15.3187714,3 12.8578286,3 C10.3955143,3 8.4,4.99585714 8.4,7.45714286 L8.4,10.5428571 L6,10.5428571 L6,20.8285714 L19.7142857,20.8285714 L19.7142857,10.5428571 L17.3142857,10.5428571 Z M13.2,15.9853714 L13.2,17.4 L12.5142857,17.4 L12.5142857,15.9853714 C11.9227714,15.8331 11.4857143,15.2961429 11.4857143,14.6571429 C11.4857143,13.8997286 12.0997286,13.2857143 12.8571429,13.2857143 C13.6145571,13.2857143 14.2285714,13.8997286 14.2285714,14.6571429 C14.2285714,15.2961429 13.7915143,15.8331 13.2,15.9853714 Z M16.6285714,10.5428571 L9.08571429,10.5428571 L9.08571429,7.45714286 C9.08571429,5.37758571 10.7778857,3.68571429 12.8578286,3.68571429 C14.9370429,3.68571429 16.6285714,5.37758571 16.6285714,7.45714286 L16.6285714,10.5428571 Z" id="Shape"></path>
                        <path d="M12.8571429,13.9714286 C12.4790571,13.9714286 12.1714286,14.2790571 12.1714286,14.6571429 C12.1714286,15.0352286 12.4790571,15.3428571 12.8571429,15.3428571 C13.2352286,15.3428571 13.5428571,15.0352286 13.5428571,14.6571429 C13.5428571,14.2790571 13.2352286,13.9714286 12.8571429,13.9714286 Z" id="Shape"></path>
                    </g>
                </g>
            </g>
        </g>
    </g>
</svg>