<?xml version="1.0" encoding="UTF-8"?>
<svg width="32px" height="32px" viewBox="0 0 32 32" version="1.1" xmlns="http://www.w3.org/2000/svg" xmlns:xlink="http://www.w3.org/1999/xlink">
    <!-- Generator: Sketch 45.1 (43504) - http://www.bohemiancoding.com/sketch -->
    <title>Rectangle 6</title>
    <desc>Created with Sketch.</desc>
    <defs></defs>
    <g id="Login/Logout/Profile" stroke="none" stroke-width="1" fill="none" fill-rule="evenodd">
        <g id="login" transform="translate(-40.000000, -275.000000)">
            <g id="Group-6" transform="translate(40.000000, 271.000000)">
                <g id="ios-locked-outline" transform="translate(0.000000, 4.000000)">
                    <path d="M22.2307692,14.1538462 L22.2307692,10 C22.2307692,6.68673077 19.5445,4 16.2316923,4 C12.9170385,4 10.2307692,6.68673077 10.2307692,10 L10.2307692,14.1538462 L7,14.1538462 L7,28 L25.4615385,28 L25.4615385,14.1538462 L22.2307692,14.1538462 Z M11.1538462,10 C11.1538462,7.20059615 13.4317692,4.92307692 16.2316923,4.92307692 C19.0306346,4.92307692 21.3076923,7.20059615 21.3076923,10 L21.3076923,14.1538462 L11.1538462,14.1538462 L11.1538462,10 Z M24.5384615,27.0769231 L7.92307692,27.0769231 L7.92307692,15.0769231 L24.5384615,15.0769231 L24.5384615,27.0769231 Z" id="Shape" fill="#FFFFFF" fill-rule="nonzero"></path>
                    <path d="M16.2307692,17.8461538 C15.2111731,17.8461538 14.3846154,18.6727115 14.3846154,19.6923077 C14.3846154,20.5525 14.9729615,21.2753269 15.7692308,21.4803077 L15.7692308,23.3846154 L16.6923077,23.3846154 L16.6923077,21.4803077 C17.4885769,21.2753269 18.0769231,20.5525 18.0769231,19.6923077 C18.0769231,18.6727115 17.2503654,17.8461538 16.2307692,17.8461538 Z M16.2307692,20.6153846 C15.7218077,20.6153846 15.3076923,20.2012692 15.3076923,19.6923077 C15.3076923,19.1833462 15.7218077,18.7692308 16.2307692,18.7692308 C16.7397308,18.7692308 17.1538462,19.1833462 17.1538462,19.6923077 C17.1538462,20.2012692 16.7397308,20.6153846 16.2307692,20.6153846 Z" id="Shape" fill="#FFFFFF" fill-rule="nonzero"></path>
                    <rect id="Rectangle-6" x="0" y="0" width="32" height="32"></rect>
                </g>
            </g>
        </g>
    </g>
</svg>