<?xml version="1.0" encoding="UTF-8"?>
<svg width="19px" height="28px" viewBox="0 0 19 28" version="1.1" xmlns="http://www.w3.org/2000/svg" xmlns:xlink="http://www.w3.org/1999/xlink">
    <!-- Generator: Sketch 45.1 (43504) - http://www.bohemiancoding.com/sketch -->
    <title>Shape</title>
    <desc>Created with Sketch.</desc>
    <defs></defs>
    <g id="Login/Logout/Profile" stroke="none" stroke-width="1" fill="none" fill-rule="evenodd">
        <g id="Trans-summary-sv" transform="translate(-8.000000, -224.000000)" fill-rule="nonzero" fill="#44A08D">
            <g id="Group-12" transform="translate(8.000000, 224.000000)">
                <g id="chicken">
                    <path d="M17.1614513,15.8984699 C17.1614513,15.8984699 18.0879779,16.2990091 18.4323022,16.5736645 C18.4323022,16.5736645 16.2883188,10.6092719 10.6401682,8.18141494 C10.6401682,8.18141494 13.1839238,8.94816138 14.9794757,10.0048219 C15.3919119,8.08396774 15.4822714,4.92785768 15.4822714,4.92092194 C14.3130748,4.98160969 13.352321,5.31695289 13.352321,5.31695289 C13.9280203,4.13336827 14.2148431,3.02087502 14.2593383,2.05091129 C14.2665259,1.88341309 14.0580831,1.80261168 13.953006,1.93231008 C13.4214597,2.59189928 12.3258513,3.88576223 11.6960732,4.16700662 C11.6960732,4.16700662 11.5564268,1.8154428 11.1819827,0.325991896 C11.1357762,0.145315779 10.8783886,0.154679032 10.8445038,0.338129447 C10.6559127,1.36080482 10.2609323,3.19218788 9.79304833,3.58197666 C9.79304833,3.58197666 9.52710402,1.37849097 9.17627659,0.209471406 C9.1235669,0.0343438833 8.87576294,0.0447474985 8.84256269,0.224730041 C8.66252832,1.20336344 8.27097067,3.12803225 7.87256762,3.76195921 C7.87256762,3.76195921 6.98540205,2.10639724 6.56269777,0.871488119 C6.50656538,0.708498148 6.27690177,0.716474253 6.23309112,0.88362567 C6.05374129,1.56644961 5.79532694,2.80378625 5.8038837,4.24121908 C5.8038837,4.24121908 4.90097368,3.34997604 4.30576499,2.31863099 C4.22362003,2.17644825 4.01380811,2.21390127 3.98574192,2.37619766 C3.88271845,2.96816337 3.7584742,4.00748453 3.93166315,4.93687415 C3.93166315,4.93687415 3.36931245,4.82763619 2.71660229,4.30260041 C2.61768606,4.22283936 2.46948286,4.27763173 2.44586619,4.40351548 C2.30416613,5.15118862 2.00125659,7.23988777 2.61289427,9.02722886 C2.61289427,9.02722886 0.505191505,9.38199213 0,11.2334888 C0,11.2334888 1.026812,10.4556452 2.37056664,10.4573792 C2.37056664,10.4573792 1.40194065,10.7240585 0.650998809,11.2855069 C2.97672799,11.2126816 5.20627912,13.1449797 5.63172156,14.0351824 C5.63172156,14.0351824 4.58505786,13.2060143 3.35459481,12.6976243 C2.72584359,13.5084127 1.49606509,15.3536673 1.49332692,17.3965905 C1.48921967,20.1403706 2.84153108,21.389498 4.24484081,21.3915787 C5.23605667,21.3929659 6.45727841,20.5998636 7.16440961,19.2917824 C6.44632575,21.7099293 5.25145885,25.823172 4.86777343,27.6864595 C4.86777343,27.6864595 9.24438845,19.7772844 18.8296785,19.7915027 C18.8300208,19.7925431 17.8165573,16.8975637 17.1614513,15.8984699 Z M8.42036883,10.7253701 C7.41819569,10.72407 6.82985204,10.2274223 6.82985204,10.120812 C6.82985204,9.96479703 7.4496339,9.26662997 8.45180704,9.2679301 C9.45398018,9.26923022 9.88,9.80033123 9.88,9.9394446 C9.8793584,10.0356538 9.42254197,10.7266702 8.42036883,10.7253701 Z" id="Shape" transform="translate(9.414839, 13.885110) scale(-1, 1) translate(-9.414839, -13.885110) "></path>
                </g>
            </g>
        </g>
    </g>
</svg>