<?xml version="1.0" encoding="UTF-8"?>
<svg width="32px" height="32px" viewBox="0 0 32 32" version="1.1" xmlns="http://www.w3.org/2000/svg" xmlns:xlink="http://www.w3.org/1999/xlink">
    <!-- Generator: Sketch 45.1 (43504) - http://www.bohemiancoding.com/sketch -->
    <title>Shape</title>
    <desc>Created with Sketch.</desc>
    <defs></defs>
    <g id="Login/Logout/Profile" stroke="none" stroke-width="1" fill="none" fill-rule="evenodd">
        <g id="login" transform="translate(-40.000000, -355.000000)">
            <g id="Group-7" transform="translate(40.000000, 351.000000)">
                <g id="ios-world-outline" transform="translate(0.000000, 4.000000)">
                    <path d="M16,4 C15.9942308,4 15.9942308,4 15.9884615,4 C15.9884615,4 15.9884615,4 15.9826923,4 C15.9769231,4 15.9711538,4 15.9711538,4 C9.35384615,4.01730769 4,9.38269231 4,16 C4,22.6173077 9.35384615,27.9826923 15.9711538,28 C15.9769231,28 15.9826923,28 15.9826923,28 C15.9826923,28 15.9884615,28 15.9884615,28 C15.9942308,28 15.9942308,28 16,28 C22.6288462,28 28,22.6288462 28,16 C28,9.37115385 22.6288462,4 16,4 Z M16.4788462,11.1826923 C17.7538462,11.1480769 18.9884615,10.9807692 20.1826923,10.6923077 C20.5403846,12.1057692 20.7653846,13.7384615 20.8,15.5269231 L16.4788462,15.5269231 L16.4788462,11.1826923 L16.4788462,11.1826923 Z M16.4788462,10.2192308 L16.4788462,5.03846154 C17.7711538,5.39615385 19.0865385,7.12115385 19.9173077,9.76923077 C18.8096154,10.0346154 17.6615385,10.1846154 16.4788462,10.2192308 Z M15.5211538,5.02692308 L15.5211538,10.225 C14.3269231,10.1903846 13.1673077,10.0346154 12.0538462,9.76346154 C12.8961538,7.09807692 14.2173077,5.36153846 15.5211538,5.02692308 Z M15.5211538,11.1826923 L15.5211538,15.5211538 L11.1711538,15.5211538 C11.2057692,13.7326923 11.4307692,12.1 11.7884615,10.6865385 C12.9884615,10.975 14.2403846,11.1480769 15.5211538,11.1826923 Z M10.2019231,15.5211538 L4.975,15.5211538 C5.07884615,13.0519231 6.00192308,10.7903846 7.47307692,9.00192308 C8.54038462,9.59038462 9.67692308,10.075 10.8653846,10.4326923 C10.4730769,11.9615385 10.2423077,13.6865385 10.2019231,15.5211538 Z M10.2019231,16.4788462 C10.2365385,18.3076923 10.4673077,20.0384615 10.8596154,21.5673077 C9.67115385,21.9307692 8.54038462,22.4096154 7.46730769,22.9980769 C5.99615385,21.2096154 5.07884615,18.9480769 4.96923077,16.4788462 L10.2019231,16.4788462 Z M11.1711538,16.4788462 L15.5211538,16.4788462 L15.5211538,20.8115385 C14.2403846,20.8461538 12.9884615,21.0192308 11.7884615,21.3134615 C11.4307692,19.9 11.2057692,18.2673077 11.1711538,16.4788462 Z M15.5211538,21.775 L15.5211538,26.9788462 C14.2173077,26.6384615 12.8961538,24.9076923 12.0538462,22.2423077 C13.1673077,21.9653846 14.3269231,21.8096154 15.5211538,21.775 Z M16.4788462,26.9615385 L16.4788462,21.7692308 C17.6615385,21.8038462 18.8096154,21.9596154 19.9230769,22.225 C19.0865385,24.8788462 17.7769231,26.6038462 16.4788462,26.9615385 Z M16.4788462,20.8115385 L16.4788462,16.4788462 L20.8,16.4788462 C20.7653846,18.2615385 20.5403846,19.8942308 20.1826923,21.3076923 C18.9884615,21.0192308 17.7538462,20.8461538 16.4788462,20.8115385 Z M21.7634615,16.4788462 L27.025,16.4788462 C26.9211538,18.9480769 25.9980769,21.2038462 24.5269231,22.9980769 C23.4480769,22.4038462 22.3057692,21.9192308 21.1057692,21.5557692 C21.4980769,20.0269231 21.7288462,18.3076923 21.7634615,16.4788462 Z M21.7634615,15.5211538 C21.7288462,13.6923077 21.4980769,11.9673077 21.1115385,10.4384615 C22.3115385,10.075 23.4538462,9.59038462 24.5269231,9.00192308 C25.9980769,10.7903846 26.9211538,13.0519231 27.025,15.5269231 L21.7634615,15.5269231 L21.7634615,15.5211538 Z M23.8692308,8.26346154 C22.9115385,8.77115385 21.9076923,9.19230769 20.8519231,9.50961538 C20.2923077,7.70384615 19.5019231,6.23269231 18.5730769,5.26346154 C20.6153846,5.75384615 22.4384615,6.81538462 23.8692308,8.26346154 Z M13.3923077,5.275 C12.4634615,6.23846154 11.6788462,7.70961538 11.125,9.50384615 C10.0807692,9.18653846 9.08269231,8.77115385 8.13653846,8.26346154 C9.55,6.82115385 11.3615385,5.76538462 13.3923077,5.275 Z M8.13076923,23.7307692 C9.07692308,23.2230769 10.0807692,22.8076923 11.1192308,22.4903846 C11.6788462,24.2903846 12.4634615,25.7557692 13.3923077,26.725 C11.3615385,26.2346154 9.55,25.1788462 8.13076923,23.7307692 Z M18.5730769,26.7365385 C19.5076923,25.7673077 20.2923077,24.2961538 20.8576923,22.4846154 C21.9134615,22.8019231 22.9173077,23.2230769 23.875,23.7307692 C22.4442308,25.1846154 20.6153846,26.2461538 18.5730769,26.7365385 Z" id="Shape" fill="#FFFFFF" fill-rule="nonzero"></path>
                    <polygon id="Shape" points="0 0 32 0 32 32 0 32"></polygon>
                </g>
            </g>
        </g>
    </g>
</svg>