<?xml version="1.0" encoding="UTF-8"?>
<svg width="24px" height="24px" viewBox="0 0 24 24" version="1.1" xmlns="http://www.w3.org/2000/svg" xmlns:xlink="http://www.w3.org/1999/xlink">
    <!-- Generator: Sketch 45.1 (43504) - http://www.bohemiancoding.com/sketch -->
    <title>Shape</title>
    <desc>Created with Sketch.</desc>
    <defs></defs>
    <g id="Symbols" stroke="none" stroke-width="1" fill="none" fill-rule="evenodd">
        <g id="btn-search" transform="translate(-16.000000, -5.000000)">
            <g id="ic_search_black_24px" transform="translate(16.000000, 5.000000)">
                <path d="M15.0497739,13.5972556 L14.2847809,13.5972556 L14.0136442,13.3358023 C14.9626228,12.2318884 15.5339467,10.7987369 15.5339467,9.23970061 C15.5339467,5.76334009 12.7160611,2.94545455 9.23970061,2.94545455 C5.76334009,2.94545455 2.94545455,5.76334009 2.94545455,9.23970061 C2.94545455,12.7160611 5.76334009,15.5339467 9.23970061,15.5339467 C10.7987369,15.5339467 12.2318884,14.9626228 13.3358023,14.0136442 L13.5972556,14.2847809 L13.5972556,15.0497739 L18.4389833,19.8818182 L19.8818182,18.4389833 L15.0497739,13.5972556 Z M9.23970061,13.5972556 C6.82852019,13.5972556 4.88214564,11.650881 4.88214564,9.23970061 C4.88214564,6.82852019 6.82852019,4.88214564 9.23970061,4.88214564 C11.650881,4.88214564 13.5972556,6.82852019 13.5972556,9.23970061 C13.5972556,11.650881 11.650881,13.5972556 9.23970061,13.5972556 Z" id="Shape" fill="#FFFFFF" fill-rule="nonzero"></path>
                <polygon id="Shape" points="0 0 23.5636364 0 23.5636364 23.5636364 0 23.5636364"></polygon>
            </g>
        </g>
    </g>
</svg>