<?xml version="1.0" encoding="UTF-8"?>
<svg width="48px" height="48px" viewBox="0 0 48 48" version="1.1" xmlns="http://www.w3.org/2000/svg" xmlns:xlink="http://www.w3.org/1999/xlink">
    <!-- Generator: Sketch 45.1 (43504) - http://www.bohemiancoding.com/sketch -->
    <title>Rectangle 23</title>
    <desc>Created with Sketch.</desc>
    <defs></defs>
    <g id="Login/Logout/Profile" stroke="none" stroke-width="1" fill="none" fill-rule="evenodd">
        <g id="Profile" transform="translate(-24.000000, -92.000000)">
            <g id="ios-person" transform="translate(24.000000, 92.000000)">
                <rect id="Rectangle-23" x="0" y="0" width="48" height="48"></rect>
                <path d="M36.07125,36.13875 C34.62,35.62125 32.53875,35.44125 31.21125,35.14875 C30.44625,34.98 29.3325,34.5525 28.96125,34.11375 C28.59,33.66375 28.815,29.5125 28.815,29.5125 C28.815,29.5125 29.50125,28.4325 29.8725,27.4875 C30.24375,26.5425 30.64875,23.955 30.64875,23.955 C30.64875,23.955 31.41375,23.955 31.68375,22.61625 C31.97625,21.15375 32.42625,20.54625 32.37,19.455 C32.31375,18.4425 31.785,18.38625 31.72875,18.38625 L31.72875,18.38625 C31.72875,18.38625 32.28,16.85625 32.35875,13.61625 C32.44875,9.78 29.5125,6 24,6 C18.4875,6 15.5625,9.76875 15.64125,13.605 C15.70875,16.83375 16.27125,18.375 16.27125,18.375 L16.27125,18.375 C16.215,18.375 15.68625,18.43125 15.63,19.44375 C15.57375,20.535 16.035,21.12 16.31625,22.5825 C16.58625,23.92125 17.35125,23.9325 17.35125,23.9325 C17.35125,23.9325 17.75625,26.53125 18.1275,27.47625 C18.49875,28.4325 19.185,29.50125 19.185,29.50125 C19.185,29.50125 19.41,33.6525 19.03875,34.1025 C18.6675,34.5525 17.55375,34.96875 16.78875,35.1375 C15.45,35.43 13.38,35.62125 11.92875,36.13875 C10.4775,36.65625 6,38.4 6,42 L24,42 L42,42 C42,38.4 37.5225,36.65625 36.07125,36.13875 Z" id="Shape" fill="#000000" fill-rule="nonzero"></path>
            </g>
        </g>
    </g>
</svg>