<?xml version="1.0" encoding="UTF-8"?>
<svg width="11px" height="20px" viewBox="0 0 11 20" version="1.1" xmlns="http://www.w3.org/2000/svg" xmlns:xlink="http://www.w3.org/1999/xlink">
    <!-- Generator: Sketch 45.1 (43504) - http://www.bohemiancoding.com/sketch -->
    <title>ic_phone_iphone_black_24px</title>
    <desc>Created with Sketch.</desc>
    <defs></defs>
    <g id="Login/Logout/Profile" stroke="none" stroke-width="1" fill="none" fill-rule="evenodd">
        <g id="login" transform="translate(-210.000000, -529.000000)">
            <g id="swithcer" transform="translate(124.000000, 523.000000)">
                <g id="ic_phone_iphone_black_24px" transform="translate(82.000000, 6.000000)">
                    <path d="M12.9166667,0.833333333 L6.25,0.833333333 C5.1,0.833333333 4.16666667,1.76666667 4.16666667,2.91666667 L4.16666667,17.0833333 C4.16666667,18.2333333 5.1,19.1666667 6.25,19.1666667 L12.9166667,19.1666667 C14.0666667,19.1666667 15,18.2333333 15,17.0833333 L15,2.91666667 C15,1.76666667 14.0666667,0.833333333 12.9166667,0.833333333 Z M9.58333333,18.3333333 C8.89166667,18.3333333 8.33333333,17.775 8.33333333,17.0833333 C8.33333333,16.3916667 8.89166667,15.8333333 9.58333333,15.8333333 C10.275,15.8333333 10.8333333,16.3916667 10.8333333,17.0833333 C10.8333333,17.775 10.275,18.3333333 9.58333333,18.3333333 Z M13.3333333,15 L5.83333333,15 L5.83333333,3.33333333 L13.3333333,3.33333333 L13.3333333,15 Z" id="Shape" fill="#FFFFFF" fill-rule="nonzero"></path>
                    <polygon id="Shape" points="0 0 20 0 20 20 0 20"></polygon>
                </g>
            </g>
        </g>
    </g>
</svg>