<svg width="30" height="29" viewBox="0 0 30 29" xmlns="http://www.w3.org/2000/svg"><title>Group 3</title><desc>Created with Sketch.</desc><path d="M13.812 28.125c5.485 0 10.013-3.244 12.24-7.987l3.01 3.528v-9.099h-8.272l3.312 3.412c-1.498 4.332-5.548 7.297-10.292 7.297-6.016 0-10.91-5.036-10.91-11.162 0-6.125 4.895-11.137 10.91-11.137 4.192 0 8.063 2.48 9.863 6.336l2.62-1.273c-2.276-4.881-7.177-8.04-12.482-8.04-7.615 0-13.811 6.309-13.811 14.063 0 7.754 6.197 14.063 13.812 14.063"/><path d="M12.381 7h1.453v1.113c.666.041 1.342.256 2.026.647v2.632c-.716-.747-1.396-1.122-2.041-1.122-.307 0-.592.104-.852.31-.262.208-.392.493-.392.855 0 .272.091.505.275.698.178.203.586.456 1.227.76.574.272 1.025.53 1.347.781.323.251.594.595.811 1.031.218.437.328.921.328 1.449 0 .817-.226 1.562-.678 2.231-.453.67-1.136 1.139-2.051 1.401v1.277h-1.453v-1.13c-.684-.018-1.475-.255-2.373-.716v-2.71c.834.846 1.641 1.269 2.422 1.269.436 0 .799-.138 1.09-.419.29-.278.435-.629.435-1.057 0-.362-.119-.658-.354-.889-.239-.229-.652-.478-1.243-.751-.772-.356-1.354-.786-1.752-1.293-.403-.501-.605-1.142-.605-1.925 0-.776.198-1.431.597-1.967.398-.534.993-.949 1.784-1.242v-1.234z"/></svg>