<?xml version="1.0" encoding="UTF-8"?>
<svg width="18px" height="20px" viewBox="0 0 18 20" version="1.1" xmlns="http://www.w3.org/2000/svg" xmlns:xlink="http://www.w3.org/1999/xlink">
    <!-- Generator: Sketch 45.1 (43504) - http://www.bohemiancoding.com/sketch -->
    <title>ace-of-hearts</title>
    <desc>Created with Sketch.</desc>
    <defs></defs>
    <g id="Symbols" stroke="none" stroke-width="1" fill="none" fill-rule="evenodd">
        <g id="navigation" transform="translate(-306.000000, -31.000000)" fill="#FFFFFF">
            <g id="ace-of-hearts" transform="translate(306.000000, 31.000000)">
                <path d="M4.01398601,3.44241409 L0.845261939,4.09010892 C0.295550982,4.20247116 -0.0320175028,4.72634719 0.10559586,5.26185837 L3.63915939,19.0124327 C3.77628607,19.54605 4.32904835,19.8970509 4.87270148,19.7921851 L15.1865205,17.8027421 C15.3703647,17.7672803 15.5295178,17.6853418 15.6547369,17.5719031 L5.02364835,17.5719031 C4.46602724,17.5719031 4.01398601,17.1322201 4.01398601,16.568363 L4.01398601,3.44241409 Z" id="Combined-Shape"></path>
                <path d="M17.1949196,0 L5.94747727,0 C5.50404371,0 5.14328147,0.3623681 5.14328147,0.807775525 L5.14328147,15.5996398 C5.14328147,16.0450472 5.50404371,16.4074153 5.94747727,16.4074153 L17.1949196,16.4074153 C17.6383531,16.4074153 17.9991154,16.0450472 17.9991154,15.5996398 L17.9991154,0.807775525 C17.9991154,0.3623681 17.6383531,0 17.1949196,0 Z M12.745465,12.232791 C12.8183252,12.3719303 10.3615874,12.3760904 10.4261643,12.2369914 C10.9718514,11.0685037 11.2770035,9.73264496 11.2770035,9.73264496 C10.9468811,10.0391554 10.3167937,10.4429624 9.7918951,10.4429624 C8.68898077,10.4471628 7.9120472,9.71176397 7.9120472,8.55163676 C7.90786538,6.61430833 11.5529633,4.06815949 11.5529633,4.06815949 L11.573792,4.06815949 C11.573792,4.06815949 15.2271731,6.60174742 15.2303094,8.54327628 C15.2303094,9.69920306 14.4575577,10.4345615 13.355729,10.4388023 C12.7818549,10.4388023 12.2038794,10.0507066 11.8789441,9.73268535 C11.8789843,9.73268535 12.1840962,11.1542895 12.745465,12.232791 Z" id="Shape" fill-rule="nonzero"></path>
            </g>
        </g>
    </g>
</svg>