<svg width="19" height="28" viewBox="0 0 19 28" xmlns="http://www.w3.org/2000/svg"><title>Shape</title><desc>Created with Sketch.</desc><path d="M1.669 15.898s-.927.401-1.271.675c0 0 2.144-5.964 7.792-8.392 0 0-2.544.767-4.339 1.823-.412-1.921-.503-5.077-.503-5.084 1.169.061 2.13.396 2.13.396-.576-1.184-.863-2.296-.907-3.266-.007-.167.201-.248.306-.119.532.66 1.627 1.953 2.257 2.235 0 0 .14-2.352.514-3.841.046-.181.304-.171.337.012.189 1.023.584 2.854 1.051 3.244 0 0 .266-2.203.617-3.373.053-.175.301-.165.334.015.18.979.572 2.903.97 3.537 0 0 .887-1.656 1.31-2.89.056-.163.286-.155.33.012.179.683.438 1.92.429 3.358 0 0 .903-.891 1.498-1.923.082-.142.292-.105.32.058.103.592.227 1.631.054 2.561 0 0 .562-.109 1.215-.634.099-.08.247-.025.271.101.142.748.445 2.836-.167 4.624 0 0 2.108.355 2.613 2.206 0 0-1.027-.778-2.371-.776 0 0 .969.267 1.72.828-2.326-.073-4.555 1.859-4.981 2.75 0 0 1.047-.829 2.277-1.338.629.811 1.859 2.656 1.861 4.699.004 2.744-1.348 3.993-2.752 3.995-.991.001-2.212-.792-2.92-2.1.718 2.418 1.913 6.531 2.297 8.395 0 0-4.377-7.909-13.962-7.895 0 .001 1.013-2.894 1.668-3.893zm8.741-5.173c1.002-.001 1.591-.498 1.591-.605 0-.156-.62-.854-1.622-.853-1.002.001-1.428.532-1.428.672.001.096.457.787 1.46.786z" fill-rule="nonzero" fill="#FFF"/></svg>