<svg width="20" height="21" viewBox="0 0 20 21" xmlns="http://www.w3.org/2000/svg"><title>Chip_blue3</title><desc>Created with Sketch.</desc><defs><filter x="-25%" y="-11.8%" width="150%" height="147.1%" filterUnits="objectBoundingBox" id="a"><feOffset dy="2" in="SourceAlpha" result="shadowOffsetOuter1"/><feGaussianBlur stdDeviation="1" in="shadowOffsetOuter1" result="shadowBlurOuter1"/><feColorMatrix values="0 0 0 0 0 0 0 0 0 0 0 0 0 0 0 0 0 0 0.5 0" in="shadowBlurOuter1" result="shadowMatrixOuter1"/><feMerge><feMergeNode in="shadowMatrixOuter1"/><feMergeNode in="SourceGraphic"/></feMerge></filter></defs><g filter="url(#a)" fill="none"><path d="M10 17c-4.418 0-8-3.806-8-8.5s3.582-8.5 8-8.5 8 3.806 8 8.5-3.582 8.5-8 8.5z" fill="#F19600"/><path d="M15 7.969c0 3.227-2.462 5.844-5.5 5.844s-5.5-2.616-5.5-5.844c0-3.227 2.462-5.844 5.5-5.844s5.5 2.616 5.5 5.844" fill="#F19600"/><path d="M16 9.031c0 3.227-2.462 5.844-5.5 5.844s-5.5-2.616-5.5-5.844c0-3.227 2.462-5.844 5.5-5.844s5.5 2.616 5.5 5.844" fill="#F19600"/><path d="M11.15 2.125l-.15.468c.606.136 1.18.338 1.711.595l.289-.419c-.574-.278-1.195-.496-1.85-.643zm1.85 11.361l.154.327c.31-.22.595-.487.846-.796l-.218-.267c-.233.285-.496.532-.782.736zm-3-11.361c-.692 0-1.362.119-2 .338l.151.724c.59-.203 1.21-.313 1.849-.313v-.749zm4.251 2.125l-.251.231c.269.247.501.527.692.831l.308-.163c-.207-.329-.458-.632-.749-.899zm.749 7.131l.395.307c.262-.61.467-1.269.605-1.966l-.44-.159c-.128.644-.318 1.254-.56 1.818zm-5 2.745v.749c.692 0 1.362-.119 2-.339l-.151-.724c-.59.203-1.21.313-1.849.313zm-5.395-8.813c-.262.61-.467 1.269-.605 1.966l.44.159c.128-.644.318-1.254.56-1.818l-.395-.307zm.1 3.188h-.706c0 .735.112 1.447.319 2.125l.681-.16c-.191-.627-.294-1.285-.294-1.965zm11.294 0c0-.735-.112-1.447-.319-2.125l-.681.16c.191.627.295 1.285.295 1.965h.705zm-9.154-5.313c-.31.22-.595.487-.846.796l.218.267c.233-.285.496-.532.782-.736l-.154-.327zm.154 11.044c.574.278 1.195.496 1.85.643l.15-.468c-.606-.136-1.18-.338-1.711-.595l-.289.419zm-2-2.381c.207.329.459.632.749.899l.251-.231c-.268-.247-.501-.527-.692-.831l-.308.163z" fill="#FEFEFE"/><path d="M5.107 13.813l.893-.395c-.093-.455-.348-.993-.752-1.529-.404-.536-.886-.974-1.353-1.263l-.896.396c.419 1.055 1.149 2.006 2.107 2.791" fill="#FEFEFE"/><path d="M12 .835v-.678c-.643-.102-1.312-.156-2-.156s-1.357.054-2 .156v.678c.533.142 1.233.228 2 .228.767 0 1.467-.086 2-.228" fill="#FEFEFE"/><path d="M5.248 5.112c.404-.536.658-1.075.752-1.529l-.893-.395c-.958.785-1.688 1.737-2.107 2.791l.895.396c.467-.289.949-.728 1.353-1.263" fill="#FEFEFE"/><path d="M12 15.781v-.678c-.533-.142-1.233-.228-2-.228-.767 0-1.467.086-2 .228v.678c.643.102 1.312.156 2 .156s1.357-.054 2-.156" fill="#FEFEFE"/><path d="M17.104 6.375l.896-.396c-.419-1.055-1.149-2.006-2.107-2.791l-.893.395c.093.454.348.993.752 1.529.404.536.886.974 1.353 1.263" fill="#FEFEFE"/><path d="M18 11.021l-.896-.396c-.467.289-.949.728-1.353 1.263-.404.536-.658 1.075-.752 1.529l.893.395c.958-.785 1.688-1.737 2.107-2.791" fill="#FEFEFE"/></g></svg>