<svg width="27" height="27" viewBox="0 0 27 27" xmlns="http://www.w3.org/2000/svg"><title>ic_settings_black_24px</title><desc>Created with Sketch.</desc><path d="M23.153 14.411c.054-.42.094-.84.094-1.286 0-.446-.04-.866-.094-1.286l2.847-2.166c.256-.197.324-.551.162-.84l-2.699-4.541c-.162-.289-.526-.394-.823-.289l-3.36 1.313c-.702-.525-1.457-.958-2.28-1.286l-.513-3.478c-.04-.315-.324-.551-.661-.551h-5.397c-.337 0-.621.236-.661.551l-.513 3.478c-.823.328-1.579.774-2.28 1.286l-3.36-1.313c-.31-.118-.661 0-.823.289l-2.699 4.541c-.175.289-.094.643.162.84l2.847 2.166c-.054.42-.094.853-.094 1.286 0 .433.04.866.094 1.286l-2.847 2.166c-.256.197-.324.551-.162.84l2.699 4.541c.162.289.526.394.823.289l3.36-1.313c.702.525 1.457.958 2.28 1.286l.513 3.478c.04.315.324.551.661.551h5.397c.337 0 .621-.236.661-.551l.513-3.478c.823-.328 1.579-.774 2.28-1.286l3.36 1.313c.31.118.661 0 .823-.289l2.699-4.541c.162-.289.094-.643-.162-.84l-2.847-2.166zm-9.535 3.095c-2.702 0-4.899-2.138-4.899-4.765 0-2.628 2.198-4.765 4.899-4.765 2.702 0 4.899 2.138 4.899 4.765 0 2.628-2.198 4.765-4.899 4.765z" fill="#2D2D2D"/></svg>