<?xml version="1.0" encoding="UTF-8"?>
<svg width="65px" height="100px" viewBox="0 0 65 100" version="1.1" xmlns="http://www.w3.org/2000/svg" xmlns:xlink="http://www.w3.org/1999/xlink">
    <!-- Generator: Sketch 45.1 (43504) - http://www.bohemiancoding.com/sketch -->
    <title>Page 1</title>
    <desc>Created with Sketch.</desc>
    <defs>
        <polygon id="path-1" points="64.49 91.9996902 64.49 0.223309565 0.000371091934 0.223309565 0.000371091934 91.9996902 64.49 91.9996902"></polygon>
        <polygon id="path-3" points="22.7161 0.867 0.5971 0.867 0.5971 50.4513 22.7161 50.4513 22.7161 0.867"></polygon>
        <path d="M6.66955085,0.973436165 C6.66955014,0.639617443 6.60703475,0.402038475 6.452,0.302 C5.914,1.659 4.224,2.216 3.458,2.217 C1.53,2.222 0.08,3.74 0.08,3.74 C0.08,3.74 0.402,4.436 0.962,6.406 C1.521,8.377 4.133,14.277 4.521,15.131 L5.896,13.396 C6.022,11.381 5.484,7.044 5.786,5.491 C6.09997729,3.86552906 6.66954355,1.98108387 6.66955085,0.973461255 L6.66955085,0.973436165 L6.66955085,0.973436165 Z" id="path-5"></path>
    </defs>
    <g id="Page-1" stroke="none" stroke-width="1" fill="none" fill-rule="evenodd">
        <g id="Artboard" transform="translate(-42.000000, -43.000000)">
            <g id="Page-1" transform="translate(42.000000, 42.000000)">
                <g id="Group-3" transform="translate(0.000000, 8.133300)">
                    <mask id="mask-2" fill="white">
                        <use xlink:href="#path-1"></use>
                    </mask>
                    <g id="Clip-2"></g>
                    <path d="M15.0645,52.7002 C15.0645,52.7002 15.4465,52.1902 16.0515,51.9922 C16.6565,51.7932 17.1655,51.8022 17.1655,51.8022 C17.1655,51.8022 17.1185,51.1852 17.3955,50.4512 C17.7655,49.4712 18.4585,47.9352 18.7775,45.7502 C19.0125,44.1502 19.1615,42.2022 19.2515,40.1792 C19.3595,37.7982 19.6205,34.9472 19.1795,32.4552 C18.5765,29.0552 17.5165,26.4142 16.2565,23.1802 C15.3145,20.7582 14.1775,17.7062 13.4985,15.3772 C12.1475,10.7462 10.9385,6.5372 11.2105,3.7582 C11.3915,1.8882 12.5415,0.7502 13.6745,0.4132 C17.8115,-0.8198 19.1745,4.1882 21.5085,8.5992 C22.7635,10.9712 24.5905,13.4302 25.5475,15.3022 C26.6745,17.5062 27.0795,18.7402 27.0795,18.7402 C27.0795,18.7402 29.4655,16.0332 31.4445,14.5882 C32.4715,13.8372 33.4555,12.6942 34.1875,12.3382 C35.2015,11.8462 37.8945,11.8302 39.2015,13.2642 C41.6505,15.9522 42.7225,21.2752 42.7225,21.2752 C42.7225,21.2752 44.9105,21.0372 46.3605,22.8002 C47.8685,24.6332 48.2445,25.5772 49.6775,29.2852 C49.6775,29.2852 51.8525,28.0132 53.8365,30.0172 C55.4735,31.6682 56.4415,34.8362 57.6475,38.2982 C58.4785,40.6772 60.0145,41.8462 60.0145,45.5262 C60.0145,49.7142 60.4595,54.7092 60.6705,59.4592 C60.8145,62.6032 60.5565,65.6392 61.0675,68.2642 C61.6305,71.1772 60.9675,69.6022 64.0905,75.4952 C64.5755,76.4122 64.8285,78.7332 63.5925,80.5022 C58.3995,87.9502 38.6325,97.7662 31.8875,87.7192 C30.2605,85.2942 29.3925,82.6162 27.8125,81.0142 C25.2355,78.3992 21.5035,78.3872 18.3505,75.4952 C12.7525,70.3632 6.7245,66.4162 5.2075,63.2712 C4.9185,62.6782 4.5235,60.3272 3.8785,57.8642 C3.4435,56.1972 2.4925,54.6042 2.1655,53.1482 C1.2435,49.0742 0.2395,48.0052 0.1825,46.0782 C0.1375,44.5882 1.3305,42.0362 1.0005,39.8762 C0.8625,38.9712 0.2805,37.2122 0.0815,35.9032 C-0.2495,33.7402 0.4275,31.6852 2.2015,31.4172 C3.6255,31.2012 4.9685,31.6092 6.6175,33.1692 C8.6165,35.0612 10.4165,37.9152 11.2345,40.0372 C12.0155,42.0642 11.4325,43.9342 11.4325,43.9342 C11.4325,43.9342 11.9955,44.4392 12.4205,45.8022 C12.5825,46.3172 12.7795,47.4052 12.9865,47.9522 C13.4935,49.2932 13.8515,50.2932 14.0565,51.0062 C14.2465,51.6572 14.0565,52.0232 14.0565,52.0232 L15.0645,52.7002 Z" id="Fill-1" fill="#FEFEFE" mask="url(#mask-2)"></path>
                </g>
                <g id="Group-6" transform="translate(3.000000, 0.133300)">
                    <mask id="mask-4" fill="white">
                        <use xlink:href="#path-3"></use>
                    </mask>
                    <g id="Clip-5"></g>
                    <path d="M11.5581,16.8613 C8.7841,16.8613 6.5351,14.6113 6.5351,11.8363 C6.5351,9.0613 8.7841,6.8123 11.5581,6.8123 C14.3331,6.8123 16.5831,9.0613 16.5831,11.8363 C16.5831,14.6113 14.3331,16.8613 11.5581,16.8613 L11.5581,16.8613 Z M11.6571,0.8663 L0.5971,13.7913 L6.3201,13.7913 L12.9381,50.4513 L16.4321,13.7913 L22.7161,13.7913 L11.6571,0.8663 Z" id="Fill-4" fill="#FEFEFE" mask="url(#mask-4)"></path>
                </g>
                <g id="Group-9" transform="translate(27.000000, 23.133300)">
                    <mask id="mask-6" fill="white">
                        <use xlink:href="#path-5"></use>
                    </mask>
                    <g id="Clip-8"></g>
                    <path d="M4.521,15.131 C4.617,15.344 5.807,14.827 5.896,13.396 C6.022,11.381 5.484,7.044 5.786,5.491 C6.204,3.327 7.075,0.704 6.452,0.302 C5.914,1.659 4.224,2.216 3.458,2.217 C1.53,2.222 0.08,3.74 0.08,3.74 C0.08,3.74 0.402,4.436 0.962,6.406 C1.521,8.377 4.133,14.277 4.521,15.131" id="Fill-7" mask="url(#mask-6)"></path>
                </g>
                <path d="M45.284,42.3343 C45.284,42.3343 44.52,41.3523 44.004,38.8833 C43.487,36.4143 42.723,29.4083 42.723,29.4083 C42.723,29.4083 43.347,30.2753 43.834,32.2063 C44.246,33.8393 43.815,33.5263 44.337,38.5003 C44.435,39.4293 45.161,41.0293 45.284,42.3343" id="Fill-10"></path>
                <path d="M52.367,43.5963 C52.367,43.5963 51.682,43.1473 51.22,42.0193 C50.756,40.8903 50.072,37.6883 50.072,37.6883 C50.072,37.6883 50.631,38.0853 51.066,38.9663 C51.437,39.7133 51.051,39.5703 51.518,41.8433 C51.604,42.2683 52.255,42.9993 52.367,43.5963" id="Fill-12"></path>
                <path d="M11.534,15.9753 C11.534,15.9753 13.376,23.9053 13.982,25.7923 C14.588,27.6793 17.472,34.4883 17.472,34.4883 L16.575,43.9043 C16.575,43.9043 13.339,29.4053 12.557,24.9363 C11.866,20.9923 11.006,15.5233 11.006,15.5233 L11.534,15.9753 Z" id="Fill-14"></path>
            </g>
        </g>
    </g>
</svg>