<svg width="30" height="30" viewBox="0 0 30 30" xmlns="http://www.w3.org/2000/svg"><title>Shape</title><desc>Created with Sketch.</desc><path d="M13.812 29.063c5.485 0 10.013-3.244 12.24-7.987l3.01 3.528v-9.099h-8.272l3.312 3.412c-1.498 4.332-5.548 7.297-10.292 7.297-6.016 0-10.91-5.036-10.91-11.162 0-6.125 4.895-11.137 10.91-11.137 4.192 0 8.063 2.48 9.863 6.336l2.62-1.273c-2.276-4.881-7.177-8.04-12.482-8.04-7.615 0-13.811 6.309-13.811 14.063 0 7.754 6.197 14.063 13.812 14.063" fill="#fff"/></svg>