<?xml version="1.0" encoding="UTF-8"?>
<svg width="24px" height="24px" viewBox="0 0 24 24" version="1.1" xmlns="http://www.w3.org/2000/svg" xmlns:xlink="http://www.w3.org/1999/xlink">
    <!-- Generator: Sketch 45.1 (43504) - http://www.bohemiancoding.com/sketch -->
    <title>swipeup</title>
    <desc>Created with Sketch.</desc>
    <defs></defs>
    <g id="Page-1" stroke="none" stroke-width="1" fill="none" fill-rule="evenodd">
        <g id="swipeup" fill="#FFFFFF">
            <path d="M4.5,3.20710678 L2.85355339,4.85355339 C2.65829124,5.04881554 2.34170876,5.04881554 2.14644661,4.85355339 C1.95118446,4.65829124 1.95118446,4.34170876 2.14644661,4.14644661 L4.64644661,1.64644661 C4.74287965,1.55001356 4.86890299,1.50120538 4.99528943,1.50002205 C4.99685465,1.50000909 4.99842648,1.5 5,1.5 C5.00157352,1.5 5.00314535,1.50000909 5.00471544,1.50002722 C5.13109701,1.50120538 5.25712035,1.55001356 5.35355339,1.64644661 L7.85355339,4.14644661 C8.04881554,4.34170876 8.04881554,4.65829124 7.85355339,4.85355339 C7.65829124,5.04881554 7.34170876,5.04881554 7.14644661,4.85355339 L5.5,3.20710678 L5.5,10.875 C5.5,11.220178 5.27614237,11.5 5,11.5 C4.72385763,11.5 4.5,11.220178 4.5,10.875 L4.5,3.20710678 Z M17.0077948,23.9046934 C15.9356013,24.1919868 14.406545,23.8076429 13.6116045,23.0640591 L8.43718826,18.2239332 C7.85365173,17.6434505 7.85191132,16.7040261 8.44243287,16.1165856 C9.02886592,15.5332124 9.97828831,15.5318386 10.5608502,16.1113517 L12.2551456,17.7967802 L10.2416211,10.2822047 L9.5961346,7.87321621 C9.38430829,7.08266967 9.85569988,6.26948406 10.6614779,6.0535765 C11.461677,5.83916378 12.2843296,6.31458674 12.4939121,7.09675908 L14.0398016,12.8660972 L20.5755774,12.1438733 C20.5755774,12.1438733 22.1530952,12.2356947 22.6691519,14.1616446 C22.6691519,14.1616446 22.8799313,14.948284 22.9248691,15.1159944 C23.0080467,15.4264173 23.0534981,15.5960443 23.0534981,15.5960443 L23.3107561,16.5561442 C23.5335386,17.3875798 23.5474139,18.8613589 23.3492223,19.7456869 C23.085402,20.9228483 22.7205111,21.5812301 22.7205111,21.5812301 C22.4942673,22.0796732 21.8793827,22.5993554 21.3488543,22.74151 L17.0077948,23.9046934 Z" id="Rectangle-46"></path>
        </g>
    </g>
</svg>